<?xml version="1.0" encoding="UTF-8" standalone="no"?>
<!-- Created with Inkscape (http://www.inkscape.org/) -->

<svg
   xmlns:dc="http://purl.org/dc/elements/1.1/"
   xmlns:cc="http://creativecommons.org/ns#"
   xmlns:rdf="http://www.w3.org/1999/02/22-rdf-syntax-ns#"
   xmlns:svg="http://www.w3.org/2000/svg"
   xmlns="http://www.w3.org/2000/svg"
   xmlns:sodipodi="http://sodipodi.sourceforge.net/DTD/sodipodi-0.dtd"
   xmlns:inkscape="http://www.inkscape.org/namespaces/inkscape"
   width="150"
   height="150"
   viewBox="0 0 39.687499 39.687501"
   version="1.1"
   id="svg3819"
   inkscape:version="0.92.4 5da689c313, 2019-01-14"
   sodipodi:docname="logo.svg"
   inkscape:export-filename="/home/m/Documents/Projects/gatsby-cms/public/assets/icons/512.png"
   inkscape:export-xdpi="327.67999"
   inkscape:export-ydpi="327.67999">
  <defs
     id="defs3813" />
  <sodipodi:namedview
     id="base"
     pagecolor="#ffffff"
     bordercolor="#666666"
     borderopacity="1.0"
     inkscape:pageopacity="0.0"
     inkscape:pageshadow="2"
     inkscape:zoom="1.4"
     inkscape:cx="309.36766"
     inkscape:cy="-64.209498"
     inkscape:document-units="px"
     inkscape:current-layer="layer1"
     showgrid="false"
     units="px"
     inkscape:window-width="1920"
     inkscape:window-height="1026"
     inkscape:window-x="0"
     inkscape:window-y="28"
     inkscape:window-maximized="1" />
  <metadata
     id="metadata3816">
    <rdf:RDF>
      <cc:Work
         rdf:about="">
        <dc:format>image/svg+xml</dc:format>
        <dc:type
           rdf:resource="http://purl.org/dc/dcmitype/StillImage" />
        <dc:title />
      </cc:Work>
    </rdf:RDF>
  </metadata>
  <g
     inkscape:label="Layer 1"
     inkscape:groupmode="layer"
     id="layer1"
     transform="translate(0,-257.31248)">
    <circle
       style="opacity:0.98000004;fill:#653399;fill-opacity:1;stroke:none;stroke-width:0.41796404;stroke-linecap:round;stroke-linejoin:round;stroke-miterlimit:4;stroke-dasharray:none;stroke-opacity:1"
       id="path812"
       cx="19.84375"
       cy="277.15622"
       r="19.84375" />
    <g
       aria-label="G"
       style="font-style:normal;font-variant:normal;font-weight:bold;font-stretch:normal;font-size:41.67115021px;line-height:1.25;font-family:sans-serif;-inkscape-font-specification:'sans-serif Bold';letter-spacing:0px;word-spacing:0px;fill:#ffffff;fill-opacity:1;stroke:none;stroke-width:0.31253362"
       id="text874"
       transform="translate(-0.66030423,0.08694948)">
      <path
         d="m 20.648047,288.00795 q 1.896038,0 3.292021,-0.33337 1.416819,-0.35421 2.687789,-0.95844 v -5.47975 h -3.771239 q -0.541725,0 -0.854258,-0.2917 -0.312534,-0.31254 -0.312534,-0.75008 v -3.16701 h 10.021912 v 12.18881 q -1.145957,0.83342 -2.396092,1.45849 -1.229298,0.60423 -2.646118,1.00011 -1.395983,0.39588 -3.000322,0.5834 -1.60434,0.20835 -3.458706,0.20835 -3.292021,0 -6.063152,-1.14596 -2.771132,-1.14595 -4.7921825,-3.18784 -2.0210507,-2.04188 -3.1670074,-4.87552 -1.125121,-2.83364 -1.125121,-6.18817 0,-3.3962 1.1042854,-6.22984 1.1042855,-2.83363 3.1253363,-4.87552 2.0418862,-2.04189 4.9380312,-3.16701 2.896145,-1.12512 6.5007,-1.12512 3.687896,0 6.375686,1.10429 2.708624,1.08345 4.583826,2.83364 l -1.625175,2.54194 q -0.479218,0.77091 -1.27097,0.77091 -0.500054,0 -1.020943,-0.33337 -0.666738,-0.39587 -1.375148,-0.79175 -0.687574,-0.39588 -1.541833,-0.68757 -0.833423,-0.2917 -1.896037,-0.47922 -1.041779,-0.18752 -2.416927,-0.18752 -2.229406,0 -4.042101,0.75008 -1.79186,0.75008 -3.06283,2.14606 -1.27097,1.39599 -1.958544,3.35453 -0.687574,1.95854 -0.687574,4.37547 0,2.60445 0.729245,4.64633 0.729245,2.02106 2.041887,3.41704 1.312641,1.39598 3.125336,2.14606 1.812695,0.72925 3.958759,0.72925 z"
         style="font-style:normal;font-variant:normal;font-weight:bold;font-stretch:normal;font-family:lato;-inkscape-font-specification:'lato Bold';fill:#ffffff;stroke-width:0.31253362"
         id="path880"
         inkscape:connector-curvature="0" />
    </g>
    <text
       xml:space="preserve"
       style="font-style:normal;font-variant:normal;font-weight:bold;font-stretch:normal;font-size:7.05555534px;line-height:1.25;font-family:sans-serif;-inkscape-font-specification:'sans-serif Bold';letter-spacing:0px;word-spacing:0px;fill:#ffffff;fill-opacity:1;stroke:none;stroke-width:0.26458332"
       x="18.898808"
       y="274.8884"
       id="text878"><tspan
         sodipodi:role="line"
         id="tspan876"
         x="18.898808"
         y="274.8884"
         style="fill:#ffffff;stroke-width:0.26458332">cms</tspan></text>
  </g>
</svg>
